<svg width="121" height="51" viewBox="0 0 121 51" fill="none" xmlns="http://www.w3.org/2000/svg">
<path d="M119.75 25.5C119.75 28.5906 118.269 31.6445 115.363 34.5403C112.453 37.4409 108.177 40.1106 102.794 42.3794C92.0338 46.9148 77.0812 49.75 60.5 49.75C43.9188 49.75 28.9662 46.9148 18.2055 42.3794C12.8227 40.1106 8.54749 37.4409 5.63673 34.5403C2.73076 31.6445 1.25 28.5906 1.25 25.5C1.25 22.4094 2.73076 19.3555 5.63673 16.4597C8.54749 13.5591 12.8227 10.8894 18.2055 8.62064C28.9662 4.08516 43.9188 1.25 60.5 1.25C77.0812 1.25 92.0338 4.08516 102.794 8.62064C108.177 10.8894 112.453 13.5591 115.363 16.4597C118.269 19.3555 119.75 22.4094 119.75 25.5Z" fill="#EAD05C" stroke="#105A54" stroke-width="2.5"/>
<path d="M49.268 22.036L47.28 30.044C46.4587 33.348 44.5733 35 41.624 35H27.54L32.02 17.08H46.104C48.3813 17.08 49.52 18.0973 49.52 20.132C49.52 20.692 49.436 21.3267 49.268 22.036ZM42.66 21.168C42.6973 21.0187 42.716 20.888 42.716 20.776C42.716 20.2907 42.3427 20.048 41.596 20.048H38.096L35.1 32.032H38.6C39.496 32.032 40.0373 31.6587 40.224 30.912L42.66 21.168ZM72.5848 17.08L68.1048 35H59.2568L55.5608 20.16H55.5048L51.8088 35H48.8408L53.3208 17.08H62.2528L65.8648 31.696H65.9488L69.6168 17.08H72.5848ZM91.2006 17.08L90.4446 20.048H82.8006C81.9046 20.048 81.3633 20.4213 81.1766 21.168L78.7406 30.912C78.7033 31.0613 78.6846 31.192 78.6846 31.304C78.6846 31.7893 79.058 32.032 79.8046 32.032H87.4486L86.7206 35H75.3246C73.0286 35 71.8806 33.9733 71.8806 31.92C71.8806 31.36 71.9646 30.7347 72.1326 30.044L74.1206 22.036C74.942 18.732 76.8366 17.08 79.8046 17.08H91.2006Z" fill="#ED3237"/>
</svg>
